<svg width="68" height="48" viewBox="0 0 68 48" fill="none" xmlns="http://www.w3.org/2000/svg">
<rect x="17" y="11" width="40" height="29" fill="white"/>
<path d="M66.6167 7.54669C66.2297 6.09903 65.4734 4.7788 64.4231 3.71741C63.3728 2.65602 62.065 1.8905 60.6301 1.49703C55.3095 0.0240047 34.0235 2.60228e-05 34.0235 2.60228e-05C34.0235 2.60228e-05 12.741 -0.0239541 7.41696 1.38398C5.98292 1.79556 4.67789 2.57191 3.62716 3.63851C2.57644 4.7051 1.81529 6.02613 1.4168 7.47476C0.013596 12.8393 4.97797e-06 23.9657 4.97797e-06 23.9657C4.97797e-06 23.9657 -0.0135854 35.147 1.37943 40.4567C2.16088 43.3925 4.45426 45.7117 7.36939 46.503C12.7444 47.976 33.9726 48 33.9726 48C33.9726 48 55.2585 48.024 60.5791 46.6194C62.0146 46.2267 63.3235 45.4629 64.3765 44.4037C65.4294 43.3445 66.1899 42.0265 66.5827 40.5801C67.9893 35.2189 67.9995 24.0959 67.9995 24.0959C67.9995 24.0959 68.0675 12.9112 66.6167 7.54669V7.54669ZM27.2148 34.2735L27.2317 13.7197L44.923 24.0137L27.2148 34.2735V34.2735Z" fill="#F10000"/>
</svg>
